<?xml version="1.0" encoding="UTF-8" standalone="no"?>
<!DOCTYPE svg PUBLIC "-//W3C//DTD SVG 1.1//EN"
 "http://www.w3.org/Graphics/SVG/1.1/DTD/svg11.dtd">
<!-- Generated by graphviz version 2.40.1 (20161225.0304)
 -->
<!-- Title: %3 Pages: 1 -->
<svg width="2701pt" height="1072pt"
 viewBox="0.00 0.00 2700.67 1072.00" xmlns="http://www.w3.org/2000/svg" xmlns:xlink="http://www.w3.org/1999/xlink">
<g id="graph0" class="graph" transform="scale(0.5 0.5) rotate(0) translate(4 1068)">
<title>%3</title>
<polygon fill="#ffffff" stroke="transparent" points="-4,4 -4,-1068 2696.6712,-1068 2696.6712,4 -4,4"/>
<g id="clust1" class="cluster">
<title>cluster&#45;nid&#45;02</title>
<polygon fill="none" stroke="#cccccc" points="838.3226,-730 838.3226,-796 1298.1815,-796 1298.1815,-730 838.3226,-730"/>
</g>
<g id="clust2" class="cluster">
<title>cluster&#45;nid&#45;03</title>
<polygon fill="none" stroke="#cccccc" points="838.3226,-806 838.3226,-872 1298.1815,-872 1298.1815,-806 838.3226,-806"/>
</g>
<g id="clust5" class="cluster">
<title>cluster&#45;nid&#45;06</title>
<polygon fill="none" stroke="#cccccc" points="1937.7316,-939 1937.7316,-1005 2026.9392,-1005 2026.9392,-939 1937.7316,-939"/>
</g>
<g id="clust7" class="cluster">
<title>cluster&#45;nid&#45;08</title>
<polygon fill="none" stroke="#cccccc" points="1947.3354,-400 1947.3354,-466 2368.2404,-466 2368.2404,-400 1947.3354,-400"/>
</g>
<g id="clust8" class="cluster">
<title>cluster&#45;nid&#45;09</title>
<polygon fill="none" stroke="#cccccc" points="1947.3354,-220 1947.3354,-286 2368.2404,-286 2368.2404,-220 1947.3354,-220"/>
</g>
<g id="clust9" class="cluster">
<title>cluster&#45;nid&#45;0a</title>
<polygon fill="none" stroke="#cccccc" points="838.3226,-929 838.3226,-995 927.5302,-995 927.5302,-929 838.3226,-929"/>
</g>
<g id="clust10" class="cluster">
<title>cluster&#45;nid&#45;0b</title>
<polygon fill="none" stroke="#cccccc" points="794.2939,-406 794.2939,-652 1313.4479,-652 1313.4479,-406 794.2939,-406"/>
</g>
<g id="clust11" class="cluster">
<title>cluster&#45;nid&#45;0c</title>
<polygon fill="none" stroke="#cccccc" points="1554.804,-669 1554.804,-791 2032.6019,-791 2032.6019,-669 1554.804,-669"/>
</g>
<g id="clust12" class="cluster">
<title>cluster&#45;nid&#45;0d</title>
<polygon fill="none" stroke="#cccccc" points="1554.804,-802 1554.804,-876 2032.6019,-876 2032.6019,-802 1554.804,-802"/>
</g>
<g id="clust16" class="cluster">
<title>cluster&#45;nid&#45;11</title>
<polygon fill="none" stroke="#cccccc" points="1947.3354,-60 1947.3354,-126 2368.2404,-126 2368.2404,-60 1947.3354,-60"/>
</g>
<g id="clust18" class="cluster">
<title>cluster&#45;nid&#45;12&#45;out</title>
<polygon fill="none" stroke="#cccccc" points="1183.4158,-8 1183.4158,-88 1342.9471,-88 1342.9471,-8 1183.4158,-8"/>
</g>
<g id="clust20" class="cluster">
<title>cluster&#45;nid&#45;13&#45;out</title>
<polygon fill="none" stroke="#cccccc" points="1171.5589,-96 1171.5589,-176 1354.804,-176 1354.804,-96 1171.5589,-96"/>
</g>
<g id="clust21" class="cluster">
<title>cluster&#45;nid&#45;14&#45;in</title>
<polygon fill="none" stroke="#cccccc" points="2232.6019,-624 2232.6019,-704 2414.6712,-704 2414.6712,-624 2232.6019,-624"/>
</g>
<g id="clust25" class="cluster">
<title>cluster&#45;nid&#45;17&#45;in</title>
<polygon fill="none" stroke="#cccccc" points="2233.388,-888 2233.388,-968 2413.8851,-968 2413.8851,-888 2233.388,-888"/>
</g>
<g id="clust28" class="cluster">
<title>cluster&#45;nid&#45;18&#45;out</title>
<polygon fill="none" stroke="#cccccc" points="413.5884,-245 413.5884,-325 569.2026,-325 569.2026,-245 413.5884,-245"/>
</g>
<g id="clust30" class="cluster">
<title>cluster&#45;nid&#45;19&#45;out</title>
<polygon fill="none" stroke="#cccccc" points="401.147,-595 401.147,-675 581.644,-675 581.644,-595 401.147,-595"/>
</g>
<g id="clust31" class="cluster">
<title>cluster&#45;nid&#45;1a&#45;in</title>
<polygon fill="none" stroke="#cccccc" points="2233.388,-800 2233.388,-880 2684.6712,-880 2684.6712,-800 2233.388,-800"/>
</g>
<g id="clust32" class="cluster">
<title>cluster&#45;nid&#45;1a&#45;out</title>
<polygon fill="none" stroke="#cccccc" points="63.2485,-507 63.2485,-587 581.644,-587 581.644,-507 63.2485,-507"/>
</g>
<g id="clust36" class="cluster">
<title>cluster&#45;nid&#45;1d&#45;out</title>
<polygon fill="none" stroke="#cccccc" points="388.4971,-333 388.4971,-413 594.2939,-413 594.2939,-333 388.4971,-333"/>
</g>
<g id="clust37" class="cluster">
<title>cluster&#45;nid&#45;1e&#45;in</title>
<polygon fill="none" stroke="#cccccc" points="2233.388,-976 2233.388,-1056 2413.8851,-1056 2413.8851,-976 2233.388,-976"/>
</g>
<g id="clust40" class="cluster">
<title>cluster&#45;nid&#45;1f&#45;out</title>
<polygon fill="none" stroke="#cccccc" points="8,-922 8,-1002 188.4971,-1002 188.4971,-922 8,-922"/>
</g>
<g id="clust42" class="cluster">
<title>cluster&#45;nid&#45;21&#45;in</title>
<polygon fill="none" stroke="#cccccc" points="2236.1634,-712 2236.1634,-792 2411.1097,-792 2411.1097,-712 2236.1634,-712"/>
</g>
<g id="clust44" class="cluster">
<title>cluster&#45;nid&#45;22</title>
<polygon fill="none" stroke="#cccccc" points="1581.7683,-209 1581.7683,-297 1705.1047,-297 1705.1047,-209 1581.7683,-209"/>
</g>
<g id="clust45" class="cluster">
<title>cluster&#45;nid&#45;23</title>
<polygon fill="none" stroke="#cccccc" points="1581.7683,-389 1581.7683,-477 1705.1047,-477 1705.1047,-389 1581.7683,-389"/>
</g>
<g id="clust46" class="cluster">
<title>cluster&#45;nid&#45;24</title>
<polygon fill="none" stroke="#cccccc" points="1581.7683,-49 1581.7683,-137 1705.1047,-137 1705.1047,-49 1581.7683,-49"/>
</g>
<g id="clust47" class="cluster">
<title>cluster&#45;nid&#45;25</title>
<polygon fill="none" stroke="#cccccc" points="429.7273,-918 429.7273,-1006 553.0637,-1006 553.0637,-918 429.7273,-918"/>
</g>
<!-- nid&#45;02 -->
<g id="node1" class="node">
<title>nid&#45;02</title>
<ellipse fill="none" stroke="#0000ff" cx="882.9264" cy="-763" rx="36.7079" ry="25.4118"/>
<text text-anchor="middle" x="882.9264" y="-765.8" font-family="Times,serif" font-size="14.00" fill="#000000">0x02</text>
<text text-anchor="middle" x="882.9264" y="-751.8" font-family="Times,serif" font-size="14.00" fill="#000000">Stereo</text>
</g>
<!-- nid&#45;02&#45;ampout -->
<g id="node2" class="node">
<title>nid&#45;02&#45;ampout</title>
<polygon fill="none" stroke="#0000ff" points="1290.1815,-763 1249.6815,-781 1249.6815,-745 1290.1815,-763"/>
</g>
<!-- nid&#45;02&#45;&gt;nid&#45;02&#45;ampout -->
<g id="edge1" class="edge">
<title>nid&#45;02&#45;&gt;nid&#45;02&#45;ampout</title>
<path fill="none" stroke="#0000ff" d="M919.7324,-763C999.3394,-763 1185.1319,-763 1244.553,-763"/>
<polygon fill="#0000ff" stroke="#0000ff" points="1244.5815,-764.7501 1249.5815,-763 1244.5814,-761.2501 1244.5815,-764.7501"/>
</g>
<!-- nid&#45;0c&#45;ampin&#45;2 -->
<g id="node24" class="node">
<title>nid&#45;0c&#45;ampin&#45;2</title>
<polygon fill="none" stroke="#0000ff" points="1724.2017,-761 1603.0539,-783 1603.0539,-739 1724.2017,-761"/>
<text text-anchor="middle" x="1643.4365" y="-756.8" font-family="Times,serif" font-size="14.00" fill="#000000">0 (0x02)</text>
</g>
<!-- nid&#45;02&#45;ampout&#45;&gt;nid&#45;0c&#45;ampin&#45;2 -->
<g id="edge18" class="edge">
<title>nid&#45;02&#45;ampout&#45;&gt;nid&#45;0c&#45;ampin&#45;2</title>
<path fill="none" stroke="#333333" d="M1289.9203,-762.8594C1352.8218,-762.5285 1511.0034,-761.6965 1592.7586,-761.2665"/>
<polygon fill="#333333" stroke="#333333" points="1592.8344,-764.7663 1602.8158,-761.2136 1592.7975,-757.7664 1592.8344,-764.7663"/>
</g>
<!-- nid&#45;03 -->
<g id="node3" class="node">
<title>nid&#45;03</title>
<ellipse fill="none" stroke="#0000ff" cx="882.9264" cy="-839" rx="36.7079" ry="25.4118"/>
<text text-anchor="middle" x="882.9264" y="-841.8" font-family="Times,serif" font-size="14.00" fill="#000000">0x03</text>
<text text-anchor="middle" x="882.9264" y="-827.8" font-family="Times,serif" font-size="14.00" fill="#000000">Stereo</text>
</g>
<!-- nid&#45;03&#45;ampout -->
<g id="node4" class="node">
<title>nid&#45;03&#45;ampout</title>
<polygon fill="none" stroke="#0000ff" points="1290.1815,-839 1249.6815,-857 1249.6815,-821 1290.1815,-839"/>
</g>
<!-- nid&#45;03&#45;&gt;nid&#45;03&#45;ampout -->
<g id="edge2" class="edge">
<title>nid&#45;03&#45;&gt;nid&#45;03&#45;ampout</title>
<path fill="none" stroke="#0000ff" d="M919.7324,-839C999.3394,-839 1185.1319,-839 1244.553,-839"/>
<polygon fill="#0000ff" stroke="#0000ff" points="1244.5815,-840.7501 1249.5815,-839 1244.5814,-837.2501 1244.5815,-840.7501"/>
</g>
<!-- nid&#45;0d&#45;ampin&#45;3 -->
<g id="node27" class="node">
<title>nid&#45;0d&#45;ampin&#45;3</title>
<polygon fill="none" stroke="#0000ff" points="1724.2017,-839 1603.0539,-861 1603.0539,-817 1724.2017,-839"/>
<text text-anchor="middle" x="1643.4365" y="-834.8" font-family="Times,serif" font-size="14.00" fill="#000000">0 (0x03)</text>
</g>
<!-- nid&#45;03&#45;ampout&#45;&gt;nid&#45;0d&#45;ampin&#45;3 -->
<g id="edge21" class="edge">
<title>nid&#45;03&#45;ampout&#45;&gt;nid&#45;0d&#45;ampin&#45;3</title>
<path fill="none" stroke="#333333" d="M1290.2236,-839C1353.3566,-839 1511.2731,-839 1592.8661,-839"/>
<polygon fill="#333333" stroke="#333333" points="1592.903,-842.5001 1602.903,-839 1592.903,-835.5001 1592.903,-842.5001"/>
</g>
<!-- nid&#45;06 -->
<g id="node5" class="node">
<title>nid&#45;06</title>
<ellipse fill="none" stroke="#0000ff" cx="1982.3354" cy="-972" rx="36.7079" ry="25.4118"/>
<text text-anchor="middle" x="1982.3354" y="-974.8" font-family="Times,serif" font-size="14.00" fill="#000000">0x06</text>
<text text-anchor="middle" x="1982.3354" y="-960.8" font-family="Times,serif" font-size="14.00" fill="#000000">Stereo</text>
</g>
<!-- nid&#45;17&#45;in -->
<g id="node34" class="node">
<title>nid&#45;17&#45;in</title>
<polygon fill="none" stroke="#00ff00" points="2406.1344,-960 2241.1387,-960 2241.1387,-896 2406.1344,-896 2406.1344,-960"/>
<text text-anchor="middle" x="2323.6365" y="-944.8" font-family="Times,serif" font-size="14.00" fill="#000000">0x17</text>
<text text-anchor="middle" x="2323.6365" y="-930.8" font-family="Times,serif" font-size="14.00" fill="#000000">[N/A] Speaker at Ext Rear</text>
<text text-anchor="middle" x="2323.6365" y="-916.8" font-family="Times,serif" font-size="14.00" fill="#000000">Stereo</text>
<text text-anchor="middle" x="2323.6365" y="-902.8" font-family="Times,serif" font-size="14.00" fill="#000000">OUT HP EAPD Detect</text>
</g>
<!-- nid&#45;06&#45;&gt;nid&#45;17&#45;in -->
<g id="edge28" class="edge">
<title>nid&#45;06&#45;&gt;nid&#45;17&#45;in</title>
<path fill="none" stroke="#c0c0c0" stroke-dasharray="5,2" d="M2018.5375,-967.3329C2068.6554,-960.8718 2160.9072,-948.9788 2230.8962,-939.9559"/>
<polygon fill="#c0c0c0" stroke="#c0c0c0" points="2231.5828,-943.3965 2241.0532,-938.6465 2230.6877,-936.4539 2231.5828,-943.3965"/>
</g>
<!-- nid&#45;1e&#45;in -->
<g id="node38" class="node">
<title>nid&#45;1e&#45;in</title>
<polygon fill="none" stroke="#00ff00" points="2406.1344,-1048 2241.1387,-1048 2241.1387,-984 2406.1344,-984 2406.1344,-1048"/>
<text text-anchor="middle" x="2323.6365" y="-1032.8" font-family="Times,serif" font-size="14.00" fill="#000000">0x1e</text>
<text text-anchor="middle" x="2323.6365" y="-1018.8" font-family="Times,serif" font-size="14.00" fill="#000000">[N/A] Speaker at Ext Rear</text>
<text text-anchor="middle" x="2323.6365" y="-1004.8" font-family="Times,serif" font-size="14.00" fill="#000000">Stereo</text>
<text text-anchor="middle" x="2323.6365" y="-990.8" font-family="Times,serif" font-size="14.00" fill="#000000">OUT Detect</text>
</g>
<!-- nid&#45;06&#45;&gt;nid&#45;1e&#45;in -->
<g id="edge33" class="edge">
<title>nid&#45;06&#45;&gt;nid&#45;1e&#45;in</title>
<path fill="none" stroke="#333333" d="M2018.5375,-976.6671C2068.6554,-983.1282 2160.9072,-995.0212 2230.8962,-1004.0441"/>
<polygon fill="#333333" stroke="#333333" points="2230.6877,-1007.5461 2241.0532,-1005.3535 2231.5828,-1000.6035 2230.6877,-1007.5461"/>
</g>
<!-- nid&#45;08 -->
<g id="node6" class="node">
<title>nid&#45;08</title>
<ellipse fill="none" stroke="#ff0000" cx="2323.6365" cy="-433" rx="36.7079" ry="25.4118"/>
<text text-anchor="middle" x="2323.6365" y="-435.8" font-family="Times,serif" font-size="14.00" fill="#000000">0x08</text>
<text text-anchor="middle" x="2323.6365" y="-421.8" font-family="Times,serif" font-size="14.00" fill="#000000">Stereo</text>
</g>
<!-- nid&#45;08&#45;ampin -->
<g id="node7" class="node">
<title>nid&#45;08&#45;ampin</title>
<polygon fill="none" stroke="#c8c8c8" points="2009.3354,-433 1968.8354,-451 1968.8354,-415 2009.3354,-433"/>
</g>
<!-- nid&#45;08&#45;ampin&#45;&gt;nid&#45;08 -->
<g id="edge3" class="edge">
<title>nid&#45;08&#45;ampin&#45;&gt;nid&#45;08</title>
<path fill="none" stroke="#c8c8c8" d="M2009.402,-433C2068.7158,-433 2210.5147,-433 2281.5623,-433"/>
<polygon fill="#c8c8c8" stroke="#c8c8c8" points="2281.9684,-434.7501 2286.9683,-433 2281.9683,-431.2501 2281.9684,-434.7501"/>
</g>
<!-- nid&#45;23 -->
<g id="node8" class="node">
<title>nid&#45;23</title>
<polygon fill="none" stroke="#000000" points="1697.2734,-469 1611.6309,-469 1589.5996,-397 1675.242,-397 1697.2734,-469"/>
<text text-anchor="middle" x="1643.4365" y="-435.8" font-family="Times,serif" font-size="14.00" fill="#000000">0x23</text>
<text text-anchor="middle" x="1643.4365" y="-421.8" font-family="Times,serif" font-size="14.00" fill="#000000">Stereo</text>
</g>
<!-- nid&#45;23&#45;&gt;nid&#45;08&#45;ampin -->
<g id="edge4" class="edge">
<title>nid&#45;23&#45;&gt;nid&#45;08&#45;ampin</title>
<path fill="none" stroke="#333333" d="M1686.3583,-433C1758.4933,-433 1901.7031,-433 1958.4098,-433"/>
<polygon fill="#333333" stroke="#333333" points="1958.5511,-436.5001 1968.5511,-433 1958.551,-429.5001 1958.5511,-436.5001"/>
</g>
<!-- nid&#45;09 -->
<g id="node9" class="node">
<title>nid&#45;09</title>
<ellipse fill="none" stroke="#ff0000" cx="2323.6365" cy="-253" rx="36.7079" ry="25.4118"/>
<text text-anchor="middle" x="2323.6365" y="-255.8" font-family="Times,serif" font-size="14.00" fill="#000000">0x09</text>
<text text-anchor="middle" x="2323.6365" y="-241.8" font-family="Times,serif" font-size="14.00" fill="#000000">Stereo</text>
</g>
<!-- nid&#45;09&#45;ampin -->
<g id="node10" class="node">
<title>nid&#45;09&#45;ampin</title>
<polygon fill="none" stroke="#2525f4" points="2009.3354,-253 1968.8354,-271 1968.8354,-235 2009.3354,-253"/>
</g>
<!-- nid&#45;09&#45;ampin&#45;&gt;nid&#45;09 -->
<g id="edge5" class="edge">
<title>nid&#45;09&#45;ampin&#45;&gt;nid&#45;09</title>
<path fill="none" stroke="#2525f4" d="M2009.402,-253C2068.7158,-253 2210.5147,-253 2281.5623,-253"/>
<polygon fill="#2525f4" stroke="#2525f4" points="2281.9684,-254.7501 2286.9683,-253 2281.9683,-251.2501 2281.9684,-254.7501"/>
</g>
<!-- nid&#45;22 -->
<g id="node11" class="node">
<title>nid&#45;22</title>
<polygon fill="none" stroke="#000000" points="1697.2734,-289 1611.6309,-289 1589.5996,-217 1675.242,-217 1697.2734,-289"/>
<text text-anchor="middle" x="1643.4365" y="-255.8" font-family="Times,serif" font-size="14.00" fill="#000000">0x22</text>
<text text-anchor="middle" x="1643.4365" y="-241.8" font-family="Times,serif" font-size="14.00" fill="#000000">Stereo</text>
</g>
<!-- nid&#45;22&#45;&gt;nid&#45;09&#45;ampin -->
<g id="edge6" class="edge">
<title>nid&#45;22&#45;&gt;nid&#45;09&#45;ampin</title>
<path fill="none" stroke="#333333" d="M1686.3583,-253C1758.4933,-253 1901.7031,-253 1958.4098,-253"/>
<polygon fill="#333333" stroke="#333333" points="1958.5511,-256.5001 1968.5511,-253 1958.551,-249.5001 1958.5511,-256.5001"/>
</g>
<!-- nid&#45;0a -->
<g id="node12" class="node">
<title>nid&#45;0a</title>
<ellipse fill="none" stroke="#ff0000" cx="882.9264" cy="-962" rx="36.7079" ry="25.4118"/>
<text text-anchor="middle" x="882.9264" y="-964.8" font-family="Times,serif" font-size="14.00" fill="#000000">0x0a</text>
<text text-anchor="middle" x="882.9264" y="-950.8" font-family="Times,serif" font-size="14.00" fill="#000000">Stereo</text>
</g>
<!-- nid&#45;25 -->
<g id="node13" class="node">
<title>nid&#45;25</title>
<polygon fill="none" stroke="#000000" points="545.2324,-998 459.59,-998 437.5586,-926 523.2011,-926 545.2324,-998"/>
<text text-anchor="middle" x="491.3955" y="-964.8" font-family="Times,serif" font-size="14.00" fill="#000000">0x25</text>
<text text-anchor="middle" x="491.3955" y="-950.8" font-family="Times,serif" font-size="14.00" fill="#000000">Stereo</text>
</g>
<!-- nid&#45;25&#45;&gt;nid&#45;0a -->
<g id="edge7" class="edge">
<title>nid&#45;25&#45;&gt;nid&#45;0a</title>
<path fill="none" stroke="#333333" d="M534.4162,-962C608.4096,-962 759.1942,-962 835.877,-962"/>
<polygon fill="#333333" stroke="#333333" points="836.1898,-965.5001 846.1898,-962 836.1898,-958.5001 836.1898,-965.5001"/>
</g>
<!-- nid&#45;0b -->
<g id="node14" class="node">
<title>nid&#45;0b</title>
<polygon fill="none" stroke="#000000" points="1305.2157,-498 1284.1986,-527.2881 1242.1644,-527.2881 1221.1473,-498 1242.1644,-468.7119 1284.1986,-468.7119 1305.2157,-498"/>
<text text-anchor="middle" x="1263.1815" y="-500.8" font-family="Times,serif" font-size="14.00" fill="#000000">0x0b</text>
<text text-anchor="middle" x="1263.1815" y="-486.8" font-family="Times,serif" font-size="14.00" fill="#000000">Stereo</text>
</g>
<!-- nid&#45;0b&#45;&gt;nid&#45;23 -->
<g id="edge46" class="edge">
<title>nid&#45;0b&#45;&gt;nid&#45;23</title>
<path fill="none" stroke="#c0c0c0" stroke-dasharray="5,2" d="M1300.6824,-491.5897C1369.2713,-479.8652 1514.9918,-454.9561 1592.489,-441.7089"/>
<polygon fill="#c0c0c0" stroke="#c0c0c0" points="1593.2344,-445.1323 1602.5017,-439.9973 1592.0549,-438.2324 1593.2344,-445.1323"/>
</g>
<!-- nid&#45;0b&#45;&gt;nid&#45;22 -->
<g id="edge40" class="edge">
<title>nid&#45;0b&#45;&gt;nid&#45;22</title>
<path fill="none" stroke="#c0c0c0" stroke-dasharray="5,2" d="M1292.0745,-479.3841C1357.9941,-436.9118 1519.8696,-332.6147 1598.7618,-281.7841"/>
<polygon fill="#c0c0c0" stroke="#c0c0c0" points="1600.9926,-284.5104 1607.5032,-276.152 1597.2012,-278.626 1600.9926,-284.5104"/>
</g>
<!-- nid&#45;0c&#45;ampin&#45;11 -->
<g id="node25" class="node">
<title>nid&#45;0c&#45;ampin&#45;11</title>
<polygon fill="none" stroke="#c8c8c8" points="1724.2017,-699 1603.0539,-721 1603.0539,-677 1724.2017,-699"/>
<text text-anchor="middle" x="1643.4365" y="-694.8" font-family="Times,serif" font-size="14.00" fill="#000000">1 (0x0b)</text>
</g>
<!-- nid&#45;0b&#45;&gt;nid&#45;0c&#45;ampin&#45;11 -->
<g id="edge19" class="edge">
<title>nid&#45;0b&#45;&gt;nid&#45;0c&#45;ampin&#45;11</title>
<path fill="none" stroke="#333333" d="M1293.6565,-514.1089C1359.2442,-548.7781 1514.287,-630.7326 1594.088,-672.9148"/>
<polygon fill="#333333" stroke="#333333" points="1592.4933,-676.0306 1602.9698,-677.6096 1595.7646,-669.842 1592.4933,-676.0306"/>
</g>
<!-- nid&#45;0b&#45;ampin&#45;24 -->
<g id="node15" class="node">
<title>nid&#45;0b&#45;ampin&#45;24</title>
<polygon fill="none" stroke="#c8c8c8" points="963.6916,-436 842.5438,-458 842.5438,-414 963.6916,-436"/>
<text text-anchor="middle" x="882.9264" y="-431.8" font-family="Times,serif" font-size="14.00" fill="#000000">0 (0x18)</text>
</g>
<!-- nid&#45;0b&#45;ampin&#45;24&#45;&gt;nid&#45;0b -->
<g id="edge8" class="edge">
<title>nid&#45;0b&#45;ampin&#45;24&#45;&gt;nid&#45;0b</title>
<path fill="none" stroke="#c8c8c8" d="M925.8073,-442.9917C998.9286,-454.914 1146.9185,-479.0435 1220.1454,-490.983"/>
<polygon fill="#c8c8c8" stroke="#c8c8c8" points="1220.07,-492.7438 1225.2865,-491.8213 1220.6333,-489.2894 1220.07,-492.7438"/>
</g>
<!-- nid&#45;0b&#45;ampin&#45;25 -->
<g id="node16" class="node">
<title>nid&#45;0b&#45;ampin&#45;25</title>
<polygon fill="none" stroke="#c8c8c8" points="963.6916,-622 842.5438,-644 842.5438,-600 963.6916,-622"/>
<text text-anchor="middle" x="882.9264" y="-617.8" font-family="Times,serif" font-size="14.00" fill="#000000">1 (0x19)</text>
</g>
<!-- nid&#45;0b&#45;ampin&#45;25&#45;&gt;nid&#45;0b -->
<g id="edge9" class="edge">
<title>nid&#45;0b&#45;ampin&#45;25&#45;&gt;nid&#45;0b</title>
<path fill="none" stroke="#c8c8c8" d="M911.8195,-612.5781C979.3175,-590.5672 1147.422,-535.7488 1224.0288,-510.7675"/>
<polygon fill="#c8c8c8" stroke="#c8c8c8" points="1224.7294,-512.3799 1228.9404,-509.1659 1223.6442,-509.0523 1224.7294,-512.3799"/>
</g>
<!-- nid&#45;0b&#45;ampin&#45;26 -->
<g id="node17" class="node">
<title>nid&#45;0b&#45;ampin&#45;26</title>
<polygon fill="none" stroke="#c8c8c8" points="962.7053,-560 843.037,-582 843.037,-538 962.7053,-560"/>
<text text-anchor="middle" x="882.9264" y="-555.8" font-family="Times,serif" font-size="14.00" fill="#000000">2 (0x1a)</text>
</g>
<!-- nid&#45;0b&#45;ampin&#45;26&#45;&gt;nid&#45;0b -->
<g id="edge10" class="edge">
<title>nid&#45;0b&#45;ampin&#45;26&#45;&gt;nid&#45;0b</title>
<path fill="none" stroke="#c8c8c8" d="M925.4397,-553.0683C998.4936,-541.1569 1147.0486,-516.9353 1220.3329,-504.9864"/>
<polygon fill="#c8c8c8" stroke="#c8c8c8" points="1220.824,-506.6795 1225.4772,-504.1476 1220.2607,-503.2251 1220.824,-506.6795"/>
</g>
<!-- nid&#45;0b&#45;ampin&#45;29 -->
<g id="node18" class="node">
<title>nid&#45;0b&#45;ampin&#45;29</title>
<polygon fill="none" stroke="#c8c8c8" points="963.6916,-498 842.5438,-520 842.5438,-476 963.6916,-498"/>
<text text-anchor="middle" x="882.9264" y="-493.8" font-family="Times,serif" font-size="14.00" fill="#000000">3 (0x1d)</text>
</g>
<!-- nid&#45;0b&#45;ampin&#45;29&#45;&gt;nid&#45;0b -->
<g id="edge11" class="edge">
<title>nid&#45;0b&#45;ampin&#45;29&#45;&gt;nid&#45;0b</title>
<path fill="none" stroke="#c8c8c8" d="M963.5687,-498C1040.1179,-498 1152.5862,-498 1215.7045,-498"/>
<polygon fill="#c8c8c8" stroke="#c8c8c8" points="1215.9089,-499.7501 1220.9088,-498 1215.9088,-496.2501 1215.9089,-499.7501"/>
</g>
<!-- nid&#45;18&#45;out -->
<g id="node19" class="node">
<title>nid&#45;18&#45;out</title>
<polygon fill="none" stroke="#00ff00" points="561.0103,-317 421.7807,-317 421.7807,-253 561.0103,-253 561.0103,-317"/>
<text text-anchor="middle" x="491.3955" y="-301.8" font-family="Times,serif" font-size="14.00" fill="#000000">0x18</text>
<text text-anchor="middle" x="491.3955" y="-287.8" font-family="Times,serif" font-size="14.00" fill="#000000">[Jack] Mic at Ext Left</text>
<text text-anchor="middle" x="491.3955" y="-273.8" font-family="Times,serif" font-size="14.00" fill="#000000">Stereo</text>
<text text-anchor="middle" x="491.3955" y="-259.8" font-family="Times,serif" font-size="14.00" fill="#000000">IN Detect</text>
</g>
<!-- nid&#45;18&#45;out&#45;&gt;nid&#45;23 -->
<g id="edge42" class="edge">
<title>nid&#45;18&#45;out&#45;&gt;nid&#45;23</title>
<path fill="none" stroke="#c0c0c0" stroke-dasharray="5,2" d="M561.1855,-292.2763C708.1988,-307.817 1060.4591,-346.1754 1354.804,-387 1436.1195,-398.2782 1529.9343,-413.6734 1587.9729,-423.4775"/>
<polygon fill="#c0c0c0" stroke="#c0c0c0" points="1587.5856,-426.9617 1598.0296,-425.1809 1588.7546,-420.06 1587.5856,-426.9617"/>
</g>
<!-- nid&#45;18&#45;out&#45;&gt;nid&#45;22 -->
<g id="edge36" class="edge">
<title>nid&#45;18&#45;out&#45;&gt;nid&#45;22</title>
<path fill="none" stroke="#c0c0c0" stroke-dasharray="5,2" d="M561.1008,-265.6468C622.0603,-249.7825 713.2663,-228.5961 794.2939,-220 1042.0194,-193.719 1106.0919,-205.8283 1354.804,-220 1436.2707,-224.642 1530.0456,-236.5968 1588.0343,-244.7673"/>
<polygon fill="#c0c0c0" stroke="#c0c0c0" points="1587.689,-248.2533 1598.0821,-246.1957 1588.6742,-241.323 1587.689,-248.2533"/>
</g>
<!-- nid&#45;18&#45;out&#45;&gt;nid&#45;0b&#45;ampin&#45;24 -->
<g id="edge12" class="edge">
<title>nid&#45;18&#45;out&#45;&gt;nid&#45;0b&#45;ampin&#45;24</title>
<path fill="none" stroke="#333333" d="M561.3934,-311.9958C639.5418,-342.1349 764.0601,-390.1573 832.963,-416.7308"/>
<polygon fill="#333333" stroke="#333333" points="831.7162,-420.0012 842.3058,-420.334 834.2351,-413.4701 831.7162,-420.0012"/>
</g>
<!-- nid&#45;19&#45;out -->
<g id="node20" class="node">
<title>nid&#45;19&#45;out</title>
<polygon fill="none" stroke="#00ff00" points="573.8933,-667 408.8977,-667 408.8977,-603 573.8933,-603 573.8933,-667"/>
<text text-anchor="middle" x="491.3955" y="-651.8" font-family="Times,serif" font-size="14.00" fill="#000000">0x19</text>
<text text-anchor="middle" x="491.3955" y="-637.8" font-family="Times,serif" font-size="14.00" fill="#000000">[N/A] Speaker at Ext Rear</text>
<text text-anchor="middle" x="491.3955" y="-623.8" font-family="Times,serif" font-size="14.00" fill="#000000">Stereo</text>
<text text-anchor="middle" x="491.3955" y="-609.8" font-family="Times,serif" font-size="14.00" fill="#000000">IN Detect</text>
</g>
<!-- nid&#45;19&#45;out&#45;&gt;nid&#45;23 -->
<g id="edge43" class="edge">
<title>nid&#45;19&#45;out&#45;&gt;nid&#45;23</title>
<path fill="none" stroke="#c0c0c0" stroke-dasharray="5,2" d="M573.6732,-649.7012C634.4118,-659.8155 719.2139,-672.3973 794.2939,-678 1042.7223,-696.5386 1121.2107,-767.571 1354.804,-681 1464.5571,-640.3249 1560.6382,-537.1705 1609.4052,-477.4966"/>
<polygon fill="#c0c0c0" stroke="#c0c0c0" points="1612.4048,-479.3534 1615.9689,-469.376 1606.9607,-474.9531 1612.4048,-479.3534"/>
</g>
<!-- nid&#45;19&#45;out&#45;&gt;nid&#45;22 -->
<g id="edge37" class="edge">
<title>nid&#45;19&#45;out&#45;&gt;nid&#45;22</title>
<path fill="none" stroke="#c0c0c0" stroke-dasharray="5,2" d="M573.6642,-602.9915C580.8162,-599.2679 587.7959,-595.2629 594.2939,-591 696.5528,-523.9152 685.0026,-456.8874 794.2939,-402 830.5601,-383.7867 1415.0122,-289.4635 1592.6341,-261.0857"/>
<polygon fill="#c0c0c0" stroke="#c0c0c0" points="1593.1885,-264.5416 1602.5115,-259.5086 1592.0847,-257.6291 1593.1885,-264.5416"/>
</g>
<!-- nid&#45;19&#45;out&#45;&gt;nid&#45;0b&#45;ampin&#45;25 -->
<g id="edge13" class="edge">
<title>nid&#45;19&#45;out&#45;&gt;nid&#45;0b&#45;ampin&#45;25</title>
<path fill="none" stroke="#333333" d="M573.9507,-632.2589C652.1084,-629.6638 766.9468,-625.8509 832.3687,-623.6787"/>
<polygon fill="#333333" stroke="#333333" points="832.5528,-627.1746 842.4311,-623.3446 832.3204,-620.1784 832.5528,-627.1746"/>
</g>
<!-- nid&#45;1a&#45;out -->
<g id="node21" class="node">
<title>nid&#45;1a&#45;out</title>
<polygon fill="none" stroke="#00ff00" points="573.8933,-579 408.8977,-579 408.8977,-515 573.8933,-515 573.8933,-579"/>
<text text-anchor="middle" x="491.3955" y="-563.8" font-family="Times,serif" font-size="14.00" fill="#000000">0x1a</text>
<text text-anchor="middle" x="491.3955" y="-549.8" font-family="Times,serif" font-size="14.00" fill="#000000">[N/A] Speaker at Ext Rear</text>
<text text-anchor="middle" x="491.3955" y="-535.8" font-family="Times,serif" font-size="14.00" fill="#000000">Stereo</text>
<text text-anchor="middle" x="491.3955" y="-521.8" font-family="Times,serif" font-size="14.00" fill="#000000">IN OUT HP EAPD Detect</text>
</g>
<!-- nid&#45;1a&#45;out&#45;&gt;nid&#45;23 -->
<g id="edge44" class="edge">
<title>nid&#45;1a&#45;out&#45;&gt;nid&#45;23</title>
<path fill="none" stroke="#333333" d="M570.7509,-579.0768C644.9469,-608.4185 750.6618,-648.3883 794.2939,-656 916.9986,-677.4061 1236.923,-696.2333 1354.804,-656 1458.6891,-620.5436 1554.2272,-530.8565 1605.0898,-476.6389"/>
<polygon fill="#333333" stroke="#333333" points="1607.7267,-478.9429 1611.9665,-469.2334 1602.5971,-474.1797 1607.7267,-478.9429"/>
</g>
<!-- nid&#45;1a&#45;out&#45;&gt;nid&#45;22 -->
<g id="edge38" class="edge">
<title>nid&#45;1a&#45;out&#45;&gt;nid&#45;22</title>
<path fill="none" stroke="#c0c0c0" stroke-dasharray="5,2" d="M534.4511,-514.8771C590.95,-474.4896 694.6627,-406.3007 794.2939,-372 1083.0566,-272.5857 1454.3359,-256.0858 1590.4263,-253.4531"/>
<polygon fill="#c0c0c0" stroke="#c0c0c0" points="1590.6413,-256.95 1600.5781,-253.2744 1590.518,-249.9511 1590.6413,-256.95"/>
</g>
<!-- nid&#45;1a&#45;out&#45;&gt;nid&#45;0b&#45;ampin&#45;26 -->
<g id="edge14" class="edge">
<title>nid&#45;1a&#45;out&#45;&gt;nid&#45;0b&#45;ampin&#45;26</title>
<path fill="none" stroke="#333333" d="M573.9507,-549.7411C652.3214,-552.3432 767.5729,-556.1699 832.9024,-558.3391"/>
<polygon fill="#333333" stroke="#333333" points="832.8348,-561.8386 842.9455,-558.6725 833.0672,-554.8425 832.8348,-561.8386"/>
</g>
<!-- nid&#45;1d&#45;out -->
<g id="node22" class="node">
<title>nid&#45;1d&#45;out</title>
<polygon fill="none" stroke="#00ff00" points="586.1925,-405 396.5985,-405 396.5985,-341 586.1925,-341 586.1925,-405"/>
<text text-anchor="middle" x="491.3955" y="-389.8" font-family="Times,serif" font-size="14.00" fill="#000000">0x1d</text>
<text text-anchor="middle" x="491.3955" y="-375.8" font-family="Times,serif" font-size="14.00" fill="#000000">[N/A] Modem Line at Ext N/A</text>
<text text-anchor="middle" x="491.3955" y="-361.8" font-family="Times,serif" font-size="14.00" fill="#000000">Mono</text>
<text text-anchor="middle" x="491.3955" y="-347.8" font-family="Times,serif" font-size="14.00" fill="#000000">IN</text>
</g>
<!-- nid&#45;1d&#45;out&#45;&gt;nid&#45;23 -->
<g id="edge45" class="edge">
<title>nid&#45;1d&#45;out&#45;&gt;nid&#45;23</title>
<path fill="none" stroke="#c0c0c0" stroke-dasharray="5,2" d="M586.3765,-373.9124C745.504,-375.9515 1075.9655,-382.3698 1354.804,-402 1436.3768,-407.7427 1530.4963,-418.6593 1588.4877,-425.8841"/>
<polygon fill="#c0c0c0" stroke="#c0c0c0" points="1588.1743,-429.3722 1598.5321,-427.1436 1589.0454,-422.4265 1588.1743,-429.3722"/>
</g>
<!-- nid&#45;1d&#45;out&#45;&gt;nid&#45;22 -->
<g id="edge39" class="edge">
<title>nid&#45;1d&#45;out&#45;&gt;nid&#45;22</title>
<path fill="none" stroke="#c0c0c0" stroke-dasharray="5,2" d="M566.4934,-340.9619C640.7801,-309.9158 749.6426,-266.327 794.2939,-258 1089.4957,-202.9481 1452.5208,-232.3378 1588.5455,-246.646"/>
<polygon fill="#c0c0c0" stroke="#c0c0c0" points="1588.394,-250.1497 1598.7092,-247.7318 1589.1376,-243.1893 1588.394,-250.1497"/>
</g>
<!-- nid&#45;1d&#45;out&#45;&gt;nid&#45;0b&#45;ampin&#45;29 -->
<g id="edge15" class="edge">
<title>nid&#45;1d&#45;out&#45;&gt;nid&#45;0b&#45;ampin&#45;29</title>
<path fill="none" stroke="#333333" d="M586.4241,-403.3388C663.9825,-428.1001 770.5367,-462.1185 832.534,-481.9117"/>
<polygon fill="#333333" stroke="#333333" points="831.4996,-485.2555 842.0904,-484.9627 833.6286,-478.5871 831.4996,-485.2555"/>
</g>
<!-- nid&#45;0c -->
<g id="node23" class="node">
<title>nid&#45;0c</title>
<polygon fill="none" stroke="#000000" points="2024.3696,-753 2003.3525,-782.2881 1961.3183,-782.2881 1940.3012,-753 1961.3183,-723.7119 2003.3525,-723.7119 2024.3696,-753"/>
<text text-anchor="middle" x="1982.3354" y="-755.8" font-family="Times,serif" font-size="14.00" fill="#000000">0x0c</text>
<text text-anchor="middle" x="1982.3354" y="-741.8" font-family="Times,serif" font-size="14.00" fill="#000000">Stereo</text>
</g>
<!-- nid&#45;14&#45;in -->
<g id="node33" class="node">
<title>nid&#45;14&#45;in</title>
<polygon fill="none" stroke="#00ff00" points="2406.7059,-696 2240.5672,-696 2240.5672,-632 2406.7059,-632 2406.7059,-696"/>
<text text-anchor="middle" x="2323.6365" y="-680.8" font-family="Times,serif" font-size="14.00" fill="#000000">0x14</text>
<text text-anchor="middle" x="2323.6365" y="-666.8" font-family="Times,serif" font-size="14.00" fill="#000000">[Fixed] Speaker at Int N/A</text>
<text text-anchor="middle" x="2323.6365" y="-652.8" font-family="Times,serif" font-size="14.00" fill="#000000">Stereo</text>
<text text-anchor="middle" x="2323.6365" y="-638.8" font-family="Times,serif" font-size="14.00" fill="#000000">OUT EAPD</text>
</g>
<!-- nid&#45;0c&#45;&gt;nid&#45;14&#45;in -->
<g id="edge24" class="edge">
<title>nid&#45;0c&#45;&gt;nid&#45;14&#45;in</title>
<path fill="none" stroke="#c0c0c0" stroke-dasharray="5,2" d="M2017.8948,-743.7273C2067.7924,-730.7157 2160.3435,-706.5814 2230.5964,-688.2618"/>
<polygon fill="#c0c0c0" stroke="#c0c0c0" points="2231.5614,-691.6273 2240.3547,-685.7171 2229.7951,-684.8538 2231.5614,-691.6273"/>
</g>
<!-- nid&#45;0c&#45;&gt;nid&#45;17&#45;in -->
<g id="edge26" class="edge">
<title>nid&#45;0c&#45;&gt;nid&#45;17&#45;in</title>
<path fill="none" stroke="#333333" d="M2012.9947,-769.4524C2060.0156,-794.5929 2152.8725,-843.8781 2232.6019,-884 2237.404,-886.4165 2242.36,-888.8846 2247.3643,-891.3573"/>
<polygon fill="#333333" stroke="#333333" points="2245.8834,-894.5293 2256.4014,-895.8029 2248.9733,-888.2482 2245.8834,-894.5293"/>
</g>
<!-- nid&#45;1a&#45;in -->
<g id="node35" class="node">
<title>nid&#45;1a&#45;in</title>
<polygon fill="none" stroke="#00ff00" points="2406.1344,-872 2241.1387,-872 2241.1387,-808 2406.1344,-808 2406.1344,-872"/>
<text text-anchor="middle" x="2323.6365" y="-856.8" font-family="Times,serif" font-size="14.00" fill="#000000">0x1a</text>
<text text-anchor="middle" x="2323.6365" y="-842.8" font-family="Times,serif" font-size="14.00" fill="#000000">[N/A] Speaker at Ext Rear</text>
<text text-anchor="middle" x="2323.6365" y="-828.8" font-family="Times,serif" font-size="14.00" fill="#000000">Stereo</text>
<text text-anchor="middle" x="2323.6365" y="-814.8" font-family="Times,serif" font-size="14.00" fill="#000000">IN OUT HP EAPD Detect</text>
</g>
<!-- nid&#45;0c&#45;&gt;nid&#45;1a&#45;in -->
<g id="edge31" class="edge">
<title>nid&#45;0c&#45;&gt;nid&#45;1a&#45;in</title>
<path fill="none" stroke="#333333" d="M2017.8948,-762.0643C2067.9554,-774.8251 2160.9489,-798.5298 2231.2845,-816.4588"/>
<polygon fill="#333333" stroke="#333333" points="2230.4972,-819.87 2241.0519,-818.9486 2232.2263,-813.0869 2230.4972,-819.87"/>
</g>
<!-- nid&#45;21&#45;in -->
<g id="node40" class="node">
<title>nid&#45;21&#45;in</title>
<polygon fill="none" stroke="#00ff00" points="2403.0828,-784 2244.1902,-784 2244.1902,-720 2403.0828,-720 2403.0828,-784"/>
<text text-anchor="middle" x="2323.6365" y="-768.8" font-family="Times,serif" font-size="14.00" fill="#000000">0x21</text>
<text text-anchor="middle" x="2323.6365" y="-754.8" font-family="Times,serif" font-size="14.00" fill="#000000">[Jack] HP Out at Ext Left</text>
<text text-anchor="middle" x="2323.6365" y="-740.8" font-family="Times,serif" font-size="14.00" fill="#000000">Stereo</text>
<text text-anchor="middle" x="2323.6365" y="-726.8" font-family="Times,serif" font-size="14.00" fill="#000000">OUT HP Detect</text>
</g>
<!-- nid&#45;0c&#45;&gt;nid&#45;21&#45;in -->
<g id="edge34" class="edge">
<title>nid&#45;0c&#45;&gt;nid&#45;21&#45;in</title>
<path fill="none" stroke="#333333" d="M2024.528,-752.8764C2076.5232,-752.724 2166.2828,-752.461 2233.9426,-752.2628"/>
<polygon fill="#333333" stroke="#333333" points="2234.19,-755.7622 2244.1797,-752.2328 2234.1694,-748.7622 2234.19,-755.7622"/>
</g>
<!-- nid&#45;0c&#45;ampin&#45;2&#45;&gt;nid&#45;0c -->
<g id="edge16" class="edge">
<title>nid&#45;0c&#45;ampin&#45;2&#45;&gt;nid&#45;0c</title>
<path fill="none" stroke="#0000ff" d="M1715.3082,-759.3034C1781.8861,-757.7318 1878.9508,-755.4405 1935.8751,-754.0967"/>
<polygon fill="#0000ff" stroke="#0000ff" points="1935.9603,-755.8453 1940.9175,-753.9777 1935.8776,-752.3463 1935.9603,-755.8453"/>
</g>
<!-- nid&#45;0c&#45;ampin&#45;11&#45;&gt;nid&#45;0c -->
<g id="edge17" class="edge">
<title>nid&#45;0c&#45;ampin&#45;11&#45;&gt;nid&#45;0c</title>
<path fill="none" stroke="#c8c8c8" d="M1686.7025,-705.894C1751.9197,-716.2857 1874.6682,-735.8444 1939.5823,-746.1877"/>
<polygon fill="#c8c8c8" stroke="#c8c8c8" points="1939.3228,-747.9184 1944.5359,-746.977 1939.8736,-744.462 1939.3228,-747.9184"/>
</g>
<!-- nid&#45;0d -->
<g id="node26" class="node">
<title>nid&#45;0d</title>
<polygon fill="none" stroke="#000000" points="2024.3696,-839 2003.3525,-868.2881 1961.3183,-868.2881 1940.3012,-839 1961.3183,-809.7119 2003.3525,-809.7119 2024.3696,-839"/>
<text text-anchor="middle" x="1982.3354" y="-841.8" font-family="Times,serif" font-size="14.00" fill="#000000">0x0d</text>
<text text-anchor="middle" x="1982.3354" y="-827.8" font-family="Times,serif" font-size="14.00" fill="#000000">Stereo</text>
</g>
<!-- nid&#45;0d&#45;&gt;nid&#45;14&#45;in -->
<g id="edge25" class="edge">
<title>nid&#45;0d&#45;&gt;nid&#45;14&#45;in</title>
<path fill="none" stroke="#333333" d="M2012.9947,-822.5476C2060.0156,-797.4071 2152.8725,-748.1219 2232.6019,-708 2237.404,-705.5835 2242.36,-703.1154 2247.3643,-700.6427"/>
<polygon fill="#333333" stroke="#333333" points="2248.9733,-703.7518 2256.4014,-696.1971 2245.8834,-697.4707 2248.9733,-703.7518"/>
</g>
<!-- nid&#45;0d&#45;&gt;nid&#45;17&#45;in -->
<g id="edge27" class="edge">
<title>nid&#45;0d&#45;&gt;nid&#45;17&#45;in</title>
<path fill="none" stroke="#c0c0c0" stroke-dasharray="5,2" d="M2017.8948,-848.2727C2067.9554,-861.3269 2160.9489,-885.5765 2231.2845,-903.9176"/>
<polygon fill="#c0c0c0" stroke="#c0c0c0" points="2230.4923,-907.3281 2241.0519,-906.4647 2232.2587,-900.5546 2230.4923,-907.3281"/>
</g>
<!-- nid&#45;0d&#45;&gt;nid&#45;1a&#45;in -->
<g id="edge32" class="edge">
<title>nid&#45;0d&#45;&gt;nid&#45;1a&#45;in</title>
<path fill="none" stroke="#c0c0c0" stroke-dasharray="5,2" d="M2024.528,-839.1236C2075.7598,-839.2737 2163.6552,-839.5313 2230.9484,-839.7284"/>
<polygon fill="#c0c0c0" stroke="#c0c0c0" points="2231.1309,-843.2289 2241.1412,-839.7583 2231.1515,-836.2289 2231.1309,-843.2289"/>
</g>
<!-- nid&#45;0d&#45;&gt;nid&#45;21&#45;in -->
<g id="edge35" class="edge">
<title>nid&#45;0d&#45;&gt;nid&#45;21&#45;in</title>
<path fill="none" stroke="#c0c0c0" stroke-dasharray="5,2" d="M2017.8948,-829.9357C2068.6892,-816.9878 2163.6843,-792.7729 2234.3626,-774.7565"/>
<polygon fill="#c0c0c0" stroke="#c0c0c0" points="2235.3415,-778.119 2244.1671,-772.2573 2233.6124,-771.3359 2235.3415,-778.119"/>
</g>
<!-- nid&#45;0d&#45;ampin&#45;3&#45;&gt;nid&#45;0d -->
<g id="edge20" class="edge">
<title>nid&#45;0d&#45;ampin&#45;3&#45;&gt;nid&#45;0d</title>
<path fill="none" stroke="#0000ff" d="M1724.1807,-839C1789.8036,-839 1880.1457,-839 1934.7165,-839"/>
<polygon fill="#0000ff" stroke="#0000ff" points="1934.8839,-840.7501 1939.8839,-839 1934.8838,-837.2501 1934.8839,-840.7501"/>
</g>
<!-- nid&#45;11 -->
<g id="node28" class="node">
<title>nid&#45;11</title>
<ellipse fill="none" stroke="#ff0000" cx="2323.6365" cy="-93" rx="36.7079" ry="25.4118"/>
<text text-anchor="middle" x="2323.6365" y="-95.8" font-family="Times,serif" font-size="14.00" fill="#000000">0x11</text>
<text text-anchor="middle" x="2323.6365" y="-81.8" font-family="Times,serif" font-size="14.00" fill="#000000">Stereo</text>
</g>
<!-- nid&#45;11&#45;ampin -->
<g id="node29" class="node">
<title>nid&#45;11&#45;ampin</title>
<polygon fill="none" stroke="#c8c8c8" points="2009.3354,-93 1968.8354,-111 1968.8354,-75 2009.3354,-93"/>
</g>
<!-- nid&#45;11&#45;ampin&#45;&gt;nid&#45;11 -->
<g id="edge22" class="edge">
<title>nid&#45;11&#45;ampin&#45;&gt;nid&#45;11</title>
<path fill="none" stroke="#c8c8c8" d="M2009.402,-93C2068.7158,-93 2210.5147,-93 2281.5623,-93"/>
<polygon fill="#c8c8c8" stroke="#c8c8c8" points="2281.9684,-94.7501 2286.9683,-93 2281.9683,-91.2501 2281.9684,-94.7501"/>
</g>
<!-- nid&#45;24 -->
<g id="node30" class="node">
<title>nid&#45;24</title>
<polygon fill="none" stroke="#000000" points="1697.2734,-129 1611.6309,-129 1589.5996,-57 1675.242,-57 1697.2734,-129"/>
<text text-anchor="middle" x="1643.4365" y="-95.8" font-family="Times,serif" font-size="14.00" fill="#000000">0x24</text>
<text text-anchor="middle" x="1643.4365" y="-81.8" font-family="Times,serif" font-size="14.00" fill="#000000">Stereo</text>
</g>
<!-- nid&#45;24&#45;&gt;nid&#45;11&#45;ampin -->
<g id="edge23" class="edge">
<title>nid&#45;24&#45;&gt;nid&#45;11&#45;ampin</title>
<path fill="none" stroke="#333333" d="M1686.3583,-93C1758.4933,-93 1901.7031,-93 1958.4098,-93"/>
<polygon fill="#333333" stroke="#333333" points="1958.5511,-96.5001 1968.5511,-93 1958.551,-89.5001 1958.5511,-96.5001"/>
</g>
<!-- nid&#45;12&#45;out -->
<g id="node31" class="node">
<title>nid&#45;12&#45;out</title>
<polygon fill="none" stroke="#00ff00" points="1334.7135,-80 1191.6494,-80 1191.6494,-16 1334.7135,-16 1334.7135,-80"/>
<text text-anchor="middle" x="1263.1815" y="-64.8" font-family="Times,serif" font-size="14.00" fill="#000000">0x12</text>
<text text-anchor="middle" x="1263.1815" y="-50.8" font-family="Times,serif" font-size="14.00" fill="#000000">[Fixed] Mic at Int N/A</text>
<text text-anchor="middle" x="1263.1815" y="-36.8" font-family="Times,serif" font-size="14.00" fill="#000000">Stereo</text>
<text text-anchor="middle" x="1263.1815" y="-22.8" font-family="Times,serif" font-size="14.00" fill="#000000">IN</text>
</g>
<!-- nid&#45;12&#45;out&#45;&gt;nid&#45;22 -->
<g id="edge41" class="edge">
<title>nid&#45;12&#45;out&#45;&gt;nid&#45;22</title>
<path fill="none" stroke="#333333" d="M1331.4562,-80.2192C1339.3635,-84.1186 1347.2844,-88.1018 1354.804,-92 1434.5091,-133.3193 1524.6063,-184.2742 1582.6169,-217.6505"/>
<polygon fill="#333333" stroke="#333333" points="1580.8792,-220.6887 1591.2913,-222.6479 1584.3736,-214.6232 1580.8792,-220.6887"/>
</g>
<!-- nid&#45;12&#45;out&#45;&gt;nid&#45;24 -->
<g id="edge48" class="edge">
<title>nid&#45;12&#45;out&#45;&gt;nid&#45;24</title>
<path fill="none" stroke="#333333" d="M1335.1516,-56.5171C1408.83,-65.2363 1521.7298,-78.597 1588.5129,-86.5003"/>
<polygon fill="#333333" stroke="#333333" points="1588.4801,-90.0207 1598.8222,-87.7203 1589.3028,-83.0692 1588.4801,-90.0207"/>
</g>
<!-- nid&#45;13&#45;out -->
<g id="node32" class="node">
<title>nid&#45;13&#45;out</title>
<polygon fill="none" stroke="#00ff00" points="1346.9268,-168 1179.4362,-168 1179.4362,-104 1346.9268,-104 1346.9268,-168"/>
<text text-anchor="middle" x="1263.1815" y="-152.8" font-family="Times,serif" font-size="14.00" fill="#000000">0x13</text>
<text text-anchor="middle" x="1263.1815" y="-138.8" font-family="Times,serif" font-size="14.00" fill="#000000">[N/A] Line Out at Ext N/A</text>
<text text-anchor="middle" x="1263.1815" y="-124.8" font-family="Times,serif" font-size="14.00" fill="#000000">Stereo</text>
<text text-anchor="middle" x="1263.1815" y="-110.8" font-family="Times,serif" font-size="14.00" fill="#000000">IN</text>
</g>
<!-- nid&#45;13&#45;out&#45;&gt;nid&#45;23 -->
<g id="edge47" class="edge">
<title>nid&#45;13&#45;out&#45;&gt;nid&#45;23</title>
<path fill="none" stroke="#c0c0c0" stroke-dasharray="5,2" d="M1304.2367,-168.0664C1373.1648,-221.903 1512.1454,-330.4544 1589.0889,-390.5516"/>
<polygon fill="#c0c0c0" stroke="#c0c0c0" points="1587.2108,-393.5257 1597.2462,-396.9229 1591.5197,-388.009 1587.2108,-393.5257"/>
</g>
<!-- nid&#45;13&#45;out&#45;&gt;nid&#45;24 -->
<g id="edge49" class="edge">
<title>nid&#45;13&#45;out&#45;&gt;nid&#45;24</title>
<path fill="none" stroke="#c0c0c0" stroke-dasharray="5,2" d="M1347.1008,-126.5102C1421.8925,-118.0526 1528.969,-105.9442 1591.8411,-98.8345"/>
<polygon fill="#c0c0c0" stroke="#c0c0c0" points="1592.3738,-102.2967 1601.9172,-97.6951 1591.5872,-95.341 1592.3738,-102.2967"/>
</g>
<!-- nid&#45;1a&#45;ampout -->
<g id="node36" class="node">
<title>nid&#45;1a&#45;ampout</title>
<polygon fill="none" stroke="#c8c8c8" points="2676.6712,-840 2636.1712,-858 2636.1712,-822 2676.6712,-840"/>
</g>
<!-- nid&#45;1a&#45;in&#45;&gt;nid&#45;1a&#45;ampout -->
<g id="edge29" class="edge">
<title>nid&#45;1a&#45;in&#45;&gt;nid&#45;1a&#45;ampout</title>
<path fill="none" stroke="#c8c8c8" d="M2405.9089,-840C2481.5273,-840 2588.157,-840 2630.8878,-840"/>
<polygon fill="#c8c8c8" stroke="#c8c8c8" points="2631.0125,-841.7501 2636.0125,-840 2631.0125,-838.2501 2631.0125,-841.7501"/>
</g>
<!-- nid&#45;1a&#45;ampin -->
<g id="node37" class="node">
<title>nid&#45;1a&#45;ampin</title>
<polygon fill="none" stroke="#0000ff" points="125.2485,-547 84.7485,-565 84.7485,-529 125.2485,-547"/>
</g>
<!-- nid&#45;1a&#45;ampin&#45;&gt;nid&#45;1a&#45;out -->
<g id="edge30" class="edge">
<title>nid&#45;1a&#45;ampin&#45;&gt;nid&#45;1a&#45;out</title>
<path fill="none" stroke="#0000ff" d="M125.2711,-547C181.7987,-547 314.6622,-547 403.8061,-547"/>
<polygon fill="#0000ff" stroke="#0000ff" points="403.8143,-548.7501 408.8143,-547 403.8143,-545.2501 403.8143,-548.7501"/>
</g>
<!-- nid&#45;1f&#45;out -->
<g id="node39" class="node">
<title>nid&#45;1f&#45;out</title>
<polygon fill="none" stroke="#00ff00" points="180.7464,-994 15.7507,-994 15.7507,-930 180.7464,-930 180.7464,-994"/>
<text text-anchor="middle" x="98.2485" y="-978.8" font-family="Times,serif" font-size="14.00" fill="#000000">0x1f</text>
<text text-anchor="middle" x="98.2485" y="-964.8" font-family="Times,serif" font-size="14.00" fill="#000000">[N/A] Speaker at Ext Rear</text>
<text text-anchor="middle" x="98.2485" y="-950.8" font-family="Times,serif" font-size="14.00" fill="#000000">Stereo</text>
<text text-anchor="middle" x="98.2485" y="-936.8" font-family="Times,serif" font-size="14.00" fill="#000000">IN Detect</text>
</g>
<!-- nid&#45;1f&#45;out&#45;&gt;nid&#45;25 -->
<g id="edge50" class="edge">
<title>nid&#45;1f&#45;out&#45;&gt;nid&#45;25</title>
<path fill="none" stroke="#333333" d="M180.665,-962C258.2485,-962 372.1386,-962 438.33,-962"/>
<polygon fill="#333333" stroke="#333333" points="438.531,-965.5001 448.5309,-962 438.5309,-958.5001 438.531,-965.5001"/>
</g>
</g>
</svg>
